<svg xmlns="http://www.w3.org/2000/svg" viewBox="0 0 64 64"><g id="_11-Lawyer" data-name="11-Lawyer"><path d="M32,39l-2,2-3-3V36.08C28.24,36,29,36,29,36Z" style="fill:#dce1eb"/><path d="M37,36.08V38l-3,3-2-2,3-3S35.76,36,37,36.08Z" style="fill:#dce1eb"/><path d="M34,41l3-3a42.235,42.235,0,0,1-2.01,11.95L33,43Z" style="fill:#f2f6fc"/><path d="M30,41l1,2-1.99,6.95A42.235,42.235,0,0,1,27,38Z" style="fill:#f2f6fc"/><polygon points="34 41 33 43 31 43 30 41 32 39 34 41" style="fill:#008cbe"/><path d="M33,43l1.99,6.95A23.058,23.058,0,0,1,32,56a23.058,23.058,0,0,1-2.99-6.05L31,43Z" style="fill:#00c8ff"/><path d="M17,63H9c0-14,3-23,3-23S17,45,17,63Z" style="fill:#9196aa"/><path d="M55,63H47c0-18,5-23,5-23S55,49,55,63Z" style="fill:#9196aa"/><path d="M29.01,49.95A23.058,23.058,0,0,0,32,56l-9-9,2-2-3-3V36.68c1.98-.34,3.74-.51,5-.6V38A42.235,42.235,0,0,0,29.01,49.95Z" style="fill:#9196aa"/><path d="M34.99,49.95A42.235,42.235,0,0,0,37,38V36.08c1.26.09,3.02.26,5,.6V42l-3,3,2,2-9,9A23.058,23.058,0,0,0,34.99,49.95Z" style="fill:#9196aa"/><path d="M32,56v7H17c0-18-5-23-5-23a31.566,31.566,0,0,1,10-3.32V42l3,3-2,2Z" style="fill:#7e8596"/><path d="M52,40s-5,5-5,23H32V56l9-9-2-2,3-3V36.68A31.566,31.566,0,0,1,52,40Z" style="fill:#707789"/><path d="M41,18v1c-12,0-14-8-14-8,0,4-4,4-4,4v3H20V13a12,12,0,0,1,24,0v5Z" style="fill:#7d3c37"/><path d="M32,1A12,12,0,0,0,20,13v4a12,12,0,0,1,24,0V13A12,12,0,0,0,32,1Z" style="fill:#68322f"/><path d="M23,18v6H21a2.006,2.006,0,0,1-2-2V19a1,1,0,0,1,1-1Z" style="fill:#faa68e"/><path d="M45,19v3a2.006,2.006,0,0,1-2,2H41V18h3A1,1,0,0,1,45,19Z" style="fill:#faa68e"/><path d="M35,32.48V36l-3,3-3-3V32.48a8.914,8.914,0,0,0,6,0Z" style="fill:#faa68e"/><path d="M35,32.48a8.914,8.914,0,0,1-6,0A8.981,8.981,0,0,1,23,24V15s4,0,4-4c0,0,2,8,14,8v5a8.954,8.954,0,0,1-2.64,6.36A8.864,8.864,0,0,1,35,32.48Z" style="fill:#ffcdbe"/><path d="M27,11c0,4-4,4-4,4v2s4,0,4-4c0,0,2,8,14,8V19C29,19,27,11,27,11Z" style="fill:#ffbeaa"/><path d="M32,34A10.011,10.011,0,0,1,22,24V15a1,1,0,0,1,1-1,2.852,2.852,0,0,0,3-3,1,1,0,0,1,1.97-.243c.074.283,1.9,6.818,12.03,7.223V15a2.852,2.852,0,0,0-3-3V10a4.821,4.821,0,0,1,5,5v9A10.011,10.011,0,0,1,32,34ZM24,15.9V24a8,8,0,0,0,16,0V19.982c-7.566-.276-11.145-3.674-12.757-6.152A4.923,4.923,0,0,1,24,15.9Z"/><path d="M23,25H21a3,3,0,0,1-3-3V19a2,2,0,0,1,2-2h3v2H20v3a1,1,0,0,0,1,1h2Z"/><path d="M43,25H41V23h2a1,1,0,0,0,1-1V19H41V17h3a2,2,0,0,1,2,2v3A3,3,0,0,1,43,25Z"/><path d="M45,18H43V13a11,11,0,0,0-22,0v5H19V13a13,13,0,0,1,26,0Z"/><path d="M55,64H9a1,1,0,0,1-1-1c0-14,2.927-22.942,3.052-23.316a.992.992,0,0,1,.452-.552c5.917-3.382,13.739-4,16.5-4.108V32h2v4a1,1,0,0,1-1,1c-.1,0-9.5.049-16.163,3.678A81.114,81.114,0,0,0,10.005,62H54a80.98,80.98,0,0,0-2.831-21.322C44.487,37.043,35.1,37,35,37a1,1,0,0,1-1-1V32h2v3.024c2.757.112,10.579.726,16.5,4.108a.992.992,0,0,1,.452.552C53.073,40.058,56,49,56,63A1,1,0,0,1,55,64Z"/><path d="M32,40a1,1,0,0,1-.707-.293l-3-3,1.414-1.414L32,37.586l2.293-2.293,1.414,1.414-3,3A1,1,0,0,1,32,40Z"/><path d="M34,42a1,1,0,0,1-.707-.293L32,40.414l-1.293,1.293a1,1,0,0,1-1.414,0l-3-3A1,1,0,0,1,26,38V36h2v1.586l2,2,1.293-1.293a1,1,0,0,1,1.414,0L34,39.586l2-2V36h2v2a1,1,0,0,1-.293.707l-3,3A1,1,0,0,1,34,42Z"/><path d="M33,44H31a1,1,0,0,1-.895-.553l-1-2,1.79-.894L31.618,42h.764l.723-1.447,1.79.894-1,2A1,1,0,0,1,33,44Z"/><path d="M32,57a1,1,0,0,1-.813-.419C26.059,49.4,26,38.462,26,38h2c0,.1.056,9.514,4,16.167C35.944,47.514,36,38.1,36,38h2c0,.462-.059,11.4-5.187,18.581A1,1,0,0,1,32,57Z"/><rect x="26.36" y="45.5" width="7.28" height="2.001" transform="translate(-22.954 62.568) rotate(-74.051)"/><rect x="33" y="42.86" width="2.001" height="7.28" transform="translate(-11.466 11.13) rotate(-15.945)"/><path d="M32.707,56.707l-1.414-1.414L39.586,47l-1.293-1.293a1,1,0,0,1,0-1.414L41,41.586V36h2v6a1,1,0,0,1-.293.707L40.414,45l1.293,1.293a1,1,0,0,1,0,1.414Z"/><path d="M33,63H31V56.414l-8.707-8.707a1,1,0,0,1,0-1.414L23.586,45l-2.293-2.293A1,1,0,0,1,21,42V36h2v5.586l2.707,2.707a1,1,0,0,1,0,1.414L24.414,47l8.293,8.293A1,1,0,0,1,33,56Z"/><path d="M18,63H16c0-17.2-4.667-22.25-4.714-22.3l1.421-1.407C12.923,39.509,18,44.8,18,63Z"/><path d="M48,63H46c0-18.2,5.077-23.491,5.293-23.707l1.414,1.414L52,40l.714.7C52.667,40.75,48,45.8,48,63Z"/></g></svg>